<?xml version="1.0" standalone="no"?>
<!DOCTYPE svg PUBLIC "-//W3C//DTD SVG 20010904//EN"
 "http://www.w3.org/TR/2001/REC-SVG-20010904/DTD/svg10.dtd">
<svg version="1.0" xmlns="http://www.w3.org/2000/svg"
 width="762.000000pt" height="775.000000pt" viewBox="0 0 762.000000 775.000000"
 preserveAspectRatio="xMidYMid meet">
<metadata>
Created by potrace 1.13, written by Peter Selinger 2001-2015
</metadata>
<g transform="translate(0.000000,775.000000) scale(0.100000,-0.100000)"
fill="#000000" stroke="none">
<path d="M693 7281 l-81 -6 174 -320 c96 -176 231 -424 300 -551 l125 -231
-67 -122 c-37 -67 -70 -119 -75 -114 -8 8 -156 270 -244 431 -27 50 -53 92
-57 92 -4 0 0 -12 7 -27 13 -25 12 -31 -9 -68 -13 -22 -47 -85 -76 -140 -29
-55 -56 -104 -60 -110 -5 -5 -21 -35 -37 -65 -61 -115 -246 -446 -265 -472
l-19 -28 145 0 144 0 138 253 c75 138 150 273 167 300 l30 47 32 -57 c18 -32
49 -89 70 -127 l37 -68 19 28 c10 16 19 35 19 42 0 6 5 12 10 12 6 0 10 5 10
11 0 7 10 28 22 48 12 19 23 40 24 46 1 6 15 31 32 55 16 25 53 90 82 145 45
86 51 105 47 142 -4 38 -105 234 -285 555 -24 42 -78 141 -132 238 l-35 65
-55 1 c-30 0 -92 -2 -137 -5z"/>
<path d="M2204 7221 c-51 -9 -123 -51 -169 -98 -122 -126 -127 -357 -8 -492
68 -78 142 -111 249 -111 70 0 89 4 143 31 42 21 75 47 101 81 45 57 59 96 67
191 l6 67 -157 0 -156 0 0 -40 0 -40 115 0 115 0 0 -27 c-1 -65 -88 -160 -168
-183 -112 -31 -225 19 -289 127 -32 56 -43 167 -22 240 17 62 107 156 165 172
88 25 168 10 230 -42 l31 -26 22 22 c26 29 26 34 -1 58 -69 59 -179 87 -274
70z"/>
<path d="M3521 7220 c-55 -12 -131 -61 -176 -113 -80 -93 -103 -250 -56 -374
29 -77 100 -154 173 -188 43 -20 69 -25 138 -25 98 0 145 17 209 76 68 61 91
109 98 208 l6 86 -157 0 -157 0 3 -37 3 -38 118 -3 118 -3 -6 -32 c-11 -49
-30 -80 -73 -119 -103 -93 -242 -88 -344 14 -64 64 -88 157 -69 264 33 181
246 275 385 169 l44 -33 27 27 26 28 -33 28 c-69 58 -181 85 -277 65z"/>
<path d="M2680 6870 l0 -342 143 4 c168 5 221 22 288 95 58 63 82 122 87 220
6 115 -21 201 -83 266 -73 77 -114 90 -287 95 l-148 4 0 -342z m266 257 c66
-17 119 -60 149 -121 21 -42 25 -64 25 -135 0 -105 -19 -151 -81 -204 -54 -47
-98 -59 -202 -55 l-82 3 -3 240 c-1 132 0 250 3 263 5 20 11 22 73 22 37 0 90
-6 118 -13z"/>
<path d="M4220 6870 l0 -342 143 4 c138 3 145 4 209 36 121 60 168 146 168
311 0 89 -3 103 -30 159 -33 66 -76 109 -143 144 -37 20 -60 23 -194 26 l-153
4 0 -342z m259 259 c68 -14 125 -58 158 -121 24 -46 28 -64 27 -138 0 -72 -4
-93 -26 -136 -28 -54 -82 -98 -139 -114 -19 -6 -71 -10 -116 -10 l-83 0 0 265
0 265 65 0 c35 0 87 -5 114 -11z"/>
<path d="M5730 6870 l0 -340 35 0 34 0 3 148 3 147 133 3 132 3 0 34 0 35
-135 0 -136 0 3 118 3 117 148 3 147 3 0 34 0 35 -185 0 -185 0 0 -340z"/>
<path d="M7078 7068 l-3 -73 -37 -3 c-36 -3 -38 -5 -38 -38 0 -33 1 -34 40
-34 l40 0 0 -145 c0 -161 10 -201 55 -231 27 -17 126 -27 139 -13 3 3 1 20 -5
38 -9 25 -16 32 -31 27 -33 -8 -65 10 -77 45 -6 17 -11 88 -11 155 l0 124 55
0 55 0 0 34 0 35 -52 3 -53 3 -3 73 -3 72 -34 0 -34 0 -3 -72z"/>
<path d="M4940 6995 c-46 -21 -87 -61 -113 -110 -16 -31 -21 -59 -21 -125 0
-76 3 -91 28 -134 41 -71 102 -106 184 -106 38 0 78 7 98 16 34 16 94 76 94
94 0 5 -14 17 -31 25 -29 15 -32 15 -45 -2 -7 -10 -14 -21 -14 -25 0 -4 -13
-14 -30 -23 -33 -17 -87 -20 -124 -5 -34 13 -86 86 -86 122 l0 28 176 0 177 0
-7 57 c-8 71 -45 135 -96 169 -50 33 -139 42 -190 19z m133 -70 c34 -17 60
-46 71 -82 7 -22 6 -22 -124 -25 -73 -2 -134 0 -137 5 -8 13 39 78 71 98 38
23 77 24 119 4z"/>
<path d="M6284 6999 c-40 -12 -98 -65 -123 -114 -29 -55 -30 -189 -2 -244 22
-42 80 -97 118 -112 47 -18 145 -11 185 14 30 18 88 80 88 94 0 2 -14 9 -32
16 -31 13 -34 12 -69 -25 -32 -34 -41 -38 -85 -38 -32 0 -59 7 -78 20 -35 23
-76 86 -76 118 0 22 0 22 175 22 l175 0 0 38 c0 65 -20 115 -64 158 -57 58
-132 76 -212 53z m126 -74 c30 -16 74 -78 68 -96 -4 -11 -246 -14 -257 -3 -3
3 3 20 14 39 35 67 111 93 175 60z"/>
<path d="M6705 6991 c-69 -32 -85 -54 -85 -117 0 -75 29 -102 141 -134 89 -26
119 -47 119 -83 0 -42 -35 -67 -92 -67 -47 0 -54 3 -90 41 -37 39 -41 40 -69
29 -34 -15 -34 -13 -12 -48 19 -28 52 -59 87 -79 35 -20 146 -16 184 7 68 41
91 124 52 187 -23 38 -54 55 -139 76 -35 9 -74 23 -87 32 -56 36 -8 105 73
105 36 0 50 -6 75 -31 28 -28 33 -29 59 -18 35 14 35 18 7 54 -47 60 -148 81
-223 46z"/>
<path d="M5240 6980 c0 -5 7 -24 15 -42 8 -18 35 -87 60 -153 25 -66 57 -151
72 -188 l27 -68 39 3 40 3 34 90 c43 114 72 190 111 288 l30 77 -39 0 c-48 0
-41 13 -144 -283 -15 -43 -31 -75 -36 -70 -4 4 -32 78 -62 163 -30 85 -58 163
-62 173 -5 12 -18 17 -46 17 -21 0 -39 -4 -39 -10z"/>
<path d="M2067 6305 c-98 -34 -142 -135 -102 -231 24 -57 73 -90 210 -139 75
-28 105 -62 105 -122 0 -77 -47 -123 -128 -123 -58 0 -134 60 -154 122 -3 8
-14 7 -36 -3 -27 -11 -32 -18 -27 -37 17 -71 97 -139 183 -157 39 -8 123 10
168 37 64 38 94 160 60 242 -19 46 -94 100 -174 127 -118 38 -164 91 -137 157
26 60 125 82 191 41 19 -11 34 -24 34 -27 0 -4 4 -13 9 -20 7 -12 14 -11 40 2
36 19 37 22 13 58 -50 76 -159 108 -255 73z"/>
<path d="M5032 6273 c-30 -15 -102 -95 -102 -113 0 -4 14 -13 30 -20 29 -12
32 -11 69 29 35 38 42 41 90 41 45 0 57 -4 82 -29 28 -28 33 -47 29 -101 -2
-39 -60 -115 -184 -245 -109 -114 -115 -122 -116 -162 l0 -43 195 0 195 0 0
35 0 35 -140 0 c-77 0 -140 3 -140 8 0 4 52 63 115 131 121 131 155 189 155
270 0 73 -49 146 -113 170 -42 16 -127 13 -165 -6z"/>
<path d="M5534 6272 c-82 -39 -130 -121 -154 -262 -13 -79 5 -183 46 -268 65
-133 224 -169 333 -75 50 42 76 90 96 175 20 85 19 150 -4 237 -36 136 -105
203 -215 208 -44 3 -72 -2 -102 -15z m183 -98 c56 -68 67 -102 68 -214 0 -127
-18 -182 -76 -234 -32 -29 -47 -36 -82 -36 -56 0 -99 28 -133 85 -23 40 -28
61 -32 145 -6 119 8 184 50 235 41 49 77 64 135 55 34 -6 53 -15 70 -36z"/>
<path d="M6426 6227 c-22 -34 -64 -100 -94 -146 -69 -108 -93 -162 -99 -233
-11 -113 53 -204 160 -228 153 -35 280 101 246 262 -21 99 -123 169 -221 153
l-39 -7 58 84 c100 143 94 129 62 155 -15 13 -28 23 -30 23 -2 0 -22 -28 -43
-63z m82 -287 c42 -26 66 -81 59 -135 -8 -57 -71 -115 -125 -115 -45 0 -100
33 -119 70 -17 34 -16 105 1 139 30 57 123 78 184 41z"/>
<path d="M6000 6235 c-47 -24 -85 -49 -84 -55 6 -62 14 -66 74 -36 28 14 56
26 61 26 5 0 9 -113 9 -270 l0 -270 38 0 37 0 -3 325 -3 325 -22 -1 c-12 0
-60 -20 -107 -44z"/>
<path d="M2585 6101 c-68 -17 -114 -61 -144 -139 -39 -99 -19 -224 46 -287 91
-88 263 -77 323 21 26 40 26 40 -12 53 -30 11 -34 9 -56 -19 -29 -38 -90 -56
-136 -40 -54 18 -106 84 -106 134 l0 26 175 0 175 0 0 23 c0 76 -58 180 -119
212 -34 17 -108 26 -146 16z m147 -110 c15 -17 28 -42 28 -56 l0 -25 -124 0
c-69 0 -127 3 -129 8 -9 13 29 73 59 93 23 16 41 19 83 16 46 -3 59 -9 83 -36z"/>
<path d="M3019 6097 c-42 -14 -81 -44 -97 -74 -16 -29 -16 -29 19 -44 29 -11
33 -11 48 8 25 30 55 43 101 43 34 0 48 -6 76 -34 23 -23 34 -43 34 -64 l0
-29 -52 14 c-95 25 -190 -2 -234 -66 -47 -69 -25 -179 43 -215 74 -38 160 -27
212 25 l31 31 0 -31 c0 -30 2 -31 41 -31 l41 0 -4 173 c-3 152 -5 176 -23 207
-45 76 -153 116 -236 87z m144 -248 c30 -8 37 -15 37 -35 0 -97 -138 -167
-205 -104 -28 26 -31 55 -13 96 22 48 99 66 181 43z"/>
<path d="M3457 6098 c-21 -6 -53 -25 -72 -43 -31 -29 -35 -38 -35 -85 0 -47 4
-56 33 -84 24 -22 54 -36 108 -50 99 -24 119 -38 119 -80 0 -48 -30 -71 -92
-71 -46 0 -53 3 -87 41 -35 40 -37 40 -68 27 l-32 -13 20 -35 c42 -71 132
-107 215 -86 87 22 124 64 124 141 0 75 -42 110 -172 145 -76 20 -103 42 -94
78 7 30 44 47 102 47 37 0 50 -5 72 -29 27 -29 27 -29 59 -13 l32 17 -25 33
c-14 18 -38 39 -53 46 -38 20 -110 26 -154 14z"/>
<path d="M3925 6105 c-5 -2 -22 -6 -38 -9 -37 -9 -103 -70 -130 -120 -32 -63
-30 -175 5 -243 34 -63 65 -89 136 -109 106 -31 206 12 256 110 74 146 0 334
-143 365 -52 11 -68 12 -86 6z m121 -106 c33 -30 63 -94 64 -135 1 -102 -91
-196 -173 -178 -135 29 -173 240 -58 320 48 33 127 30 167 -7z"/>
<path d="M4425 6099 c-17 -4 -44 -22 -60 -39 -36 -38 -45 -38 -45 0 0 28 -3
30 -35 30 l-35 0 0 -230 0 -230 40 0 40 0 0 150 c0 164 6 190 56 229 29 23 92
28 125 11 44 -24 54 -65 54 -232 l0 -158 38 0 37 0 0 153 c-1 181 -10 230 -53
275 -44 46 -99 60 -162 41z"/>
<path d="M693 4851 l-81 -6 174 -320 c96 -176 231 -424 300 -551 l125 -231
-67 -122 c-37 -67 -70 -119 -75 -114 -8 8 -156 270 -244 431 -27 50 -53 92
-57 92 -4 0 0 -12 7 -27 13 -25 12 -31 -9 -68 -13 -22 -47 -85 -76 -140 -29
-55 -56 -104 -60 -110 -5 -5 -21 -35 -37 -65 -61 -115 -246 -446 -265 -472
l-19 -28 145 0 144 0 138 253 c75 138 150 273 167 300 l30 47 32 -57 c18 -32
49 -89 70 -127 l37 -68 19 28 c10 16 19 35 19 42 0 6 5 12 10 12 6 0 10 5 10
11 0 7 10 28 22 48 12 19 23 40 24 46 1 6 15 31 32 55 16 25 53 90 82 145 45
86 51 105 47 142 -4 38 -105 234 -285 555 -24 42 -78 141 -132 238 l-35 65
-55 1 c-30 0 -92 -2 -137 -5z"/>
<path d="M2204 4791 c-51 -9 -123 -51 -169 -98 -122 -126 -127 -357 -8 -492
68 -78 142 -111 249 -111 70 0 89 4 143 31 42 21 75 47 101 81 45 57 59 96 67
191 l6 67 -157 0 -156 0 0 -40 0 -40 115 0 115 0 0 -27 c-1 -65 -88 -160 -168
-183 -112 -31 -225 19 -289 127 -32 56 -43 167 -22 240 17 62 107 156 165 172
88 25 168 10 230 -42 l31 -26 22 22 c26 29 26 34 -1 58 -69 59 -179 87 -274
70z"/>
<path d="M3521 4790 c-55 -12 -131 -61 -176 -113 -80 -93 -103 -250 -56 -374
29 -77 100 -154 173 -188 43 -20 69 -25 138 -25 98 0 145 17 209 76 68 61 91
109 98 208 l6 86 -157 0 -157 0 3 -37 3 -38 118 -3 118 -3 -6 -32 c-11 -49
-30 -80 -73 -119 -103 -93 -242 -88 -344 14 -64 64 -88 157 -69 264 33 181
246 275 385 169 l44 -33 27 27 26 28 -33 28 c-69 58 -181 85 -277 65z"/>
<path d="M2680 4440 l0 -342 143 4 c168 5 221 22 288 95 58 63 82 122 87 220
6 115 -21 201 -83 266 -73 77 -114 90 -287 95 l-148 4 0 -342z m266 257 c66
-17 119 -60 149 -121 21 -42 25 -64 25 -135 0 -105 -19 -151 -81 -204 -54 -47
-98 -59 -202 -55 l-82 3 -3 240 c-1 132 0 250 3 263 5 20 11 22 73 22 37 0 90
-6 118 -13z"/>
<path d="M4220 4440 l0 -342 143 4 c138 3 145 4 209 36 121 60 168 146 168
311 0 89 -3 103 -30 159 -33 66 -76 109 -143 144 -37 20 -60 23 -194 26 l-153
4 0 -342z m259 259 c68 -14 125 -58 158 -121 24 -46 28 -64 27 -138 0 -72 -4
-93 -26 -136 -28 -54 -82 -98 -139 -114 -19 -6 -71 -10 -116 -10 l-83 0 0 265
0 265 65 0 c35 0 87 -5 114 -11z"/>
<path d="M5730 4440 l0 -340 35 0 34 0 3 148 3 147 133 3 132 3 0 34 0 35
-135 0 -136 0 3 118 3 117 148 3 147 3 0 34 0 35 -185 0 -185 0 0 -340z"/>
<path d="M7078 4638 l-3 -73 -37 -3 c-36 -3 -38 -5 -38 -38 0 -33 1 -34 40
-34 l40 0 0 -145 c0 -161 10 -201 55 -231 27 -17 126 -27 139 -13 3 3 1 20 -5
38 -9 25 -16 32 -31 27 -33 -8 -65 10 -77 45 -6 17 -11 88 -11 155 l0 124 55
0 55 0 0 34 0 35 -52 3 -53 3 -3 73 -3 72 -34 0 -34 0 -3 -72z"/>
<path d="M4940 4565 c-46 -21 -87 -61 -113 -110 -16 -31 -21 -59 -21 -125 0
-76 3 -91 28 -134 41 -71 102 -106 184 -106 38 0 78 7 98 16 34 16 94 76 94
94 0 5 -14 17 -31 25 -29 15 -32 15 -45 -2 -7 -10 -14 -21 -14 -25 0 -4 -13
-14 -30 -23 -33 -17 -87 -20 -124 -5 -34 13 -86 86 -86 122 l0 28 176 0 177 0
-7 57 c-8 71 -45 135 -96 169 -50 33 -139 42 -190 19z m133 -70 c34 -17 60
-46 71 -82 7 -22 6 -22 -124 -25 -73 -2 -134 0 -137 5 -8 13 39 78 71 98 38
23 77 24 119 4z"/>
<path d="M6284 4569 c-40 -12 -98 -65 -123 -114 -29 -55 -30 -189 -2 -244 22
-42 80 -97 118 -112 47 -18 145 -11 185 14 30 18 88 80 88 94 0 2 -14 9 -32
16 -31 13 -34 12 -69 -25 -32 -34 -41 -38 -85 -38 -32 0 -59 7 -78 20 -35 23
-76 86 -76 118 0 22 0 22 175 22 l175 0 0 38 c0 65 -20 115 -64 158 -57 58
-132 76 -212 53z m126 -74 c30 -16 74 -78 68 -96 -4 -11 -246 -14 -257 -3 -3
3 3 20 14 39 35 67 111 93 175 60z"/>
<path d="M6705 4561 c-69 -32 -85 -54 -85 -117 0 -75 29 -102 141 -134 89 -26
119 -47 119 -83 0 -42 -35 -67 -92 -67 -47 0 -54 3 -90 41 -37 39 -41 40 -69
29 -34 -15 -34 -13 -12 -48 19 -28 52 -59 87 -79 35 -20 146 -16 184 7 68 41
91 124 52 187 -23 38 -54 55 -139 76 -35 9 -74 23 -87 32 -56 36 -8 105 73
105 36 0 50 -6 75 -31 28 -28 33 -29 59 -18 35 14 35 18 7 54 -47 60 -148 81
-223 46z"/>
<path d="M5240 4550 c0 -5 7 -24 15 -42 8 -18 35 -87 60 -153 25 -66 57 -151
72 -188 l27 -68 39 3 40 3 34 90 c43 114 72 190 111 288 l30 77 -39 0 c-48 0
-41 13 -144 -283 -15 -43 -31 -75 -36 -70 -4 4 -32 78 -62 163 -30 85 -58 163
-62 173 -5 12 -18 17 -46 17 -21 0 -39 -4 -39 -10z"/>
<path d="M2067 3875 c-98 -34 -142 -135 -102 -231 24 -57 73 -90 210 -139 75
-28 105 -62 105 -122 0 -77 -47 -123 -128 -123 -58 0 -134 60 -154 122 -3 8
-14 7 -36 -3 -27 -11 -32 -18 -27 -37 17 -71 97 -139 183 -157 39 -8 123 10
168 37 64 38 94 160 60 242 -19 46 -94 100 -174 127 -118 38 -164 91 -137 157
26 60 125 82 191 41 19 -11 34 -24 34 -27 0 -4 4 -13 9 -20 7 -12 14 -11 40 2
36 19 37 22 13 58 -50 76 -159 108 -255 73z"/>
<path d="M5032 3843 c-30 -15 -102 -95 -102 -113 0 -4 14 -13 30 -20 29 -12
32 -11 69 29 35 38 42 41 90 41 45 0 57 -4 82 -29 28 -28 33 -47 29 -101 -2
-39 -60 -115 -184 -245 -109 -114 -115 -122 -116 -162 l0 -43 195 0 195 0 0
35 0 35 -140 0 c-77 0 -140 3 -140 8 0 4 52 63 115 131 121 131 155 189 155
270 0 73 -49 146 -113 170 -42 16 -127 13 -165 -6z"/>
<path d="M5534 3842 c-82 -39 -130 -121 -154 -262 -13 -79 5 -183 46 -268 65
-133 224 -169 333 -75 50 42 76 90 96 175 20 85 19 150 -4 237 -36 136 -105
203 -215 208 -44 3 -72 -2 -102 -15z m183 -98 c56 -68 67 -102 68 -214 0 -127
-18 -182 -76 -234 -32 -29 -47 -36 -82 -36 -56 0 -99 28 -133 85 -23 40 -28
61 -32 145 -6 119 8 184 50 235 41 49 77 64 135 55 34 -6 53 -15 70 -36z"/>
<path d="M6426 3797 c-22 -34 -64 -100 -94 -146 -69 -108 -93 -162 -99 -233
-11 -113 53 -204 160 -228 153 -35 280 101 246 262 -21 99 -123 169 -221 153
l-39 -7 58 84 c100 143 94 129 62 155 -15 13 -28 23 -30 23 -2 0 -22 -28 -43
-63z m82 -287 c42 -26 66 -81 59 -135 -8 -57 -71 -115 -125 -115 -45 0 -100
33 -119 70 -17 34 -16 105 1 139 30 57 123 78 184 41z"/>
<path d="M6000 3805 c-47 -24 -85 -49 -84 -55 6 -62 14 -66 74 -36 28 14 56
26 61 26 5 0 9 -113 9 -270 l0 -270 38 0 37 0 -3 325 -3 325 -22 -1 c-12 0
-60 -20 -107 -44z"/>
<path d="M2585 3671 c-68 -17 -114 -61 -144 -139 -39 -99 -19 -224 46 -287 91
-88 263 -77 323 21 26 40 26 40 -12 53 -30 11 -34 9 -56 -19 -29 -38 -90 -56
-136 -40 -54 18 -106 84 -106 134 l0 26 175 0 175 0 0 23 c0 76 -58 180 -119
212 -34 17 -108 26 -146 16z m147 -110 c15 -17 28 -42 28 -56 l0 -25 -124 0
c-69 0 -127 3 -129 8 -9 13 29 73 59 93 23 16 41 19 83 16 46 -3 59 -9 83 -36z"/>
<path d="M3019 3667 c-42 -14 -81 -44 -97 -74 -16 -29 -16 -29 19 -44 29 -11
33 -11 48 8 25 30 55 43 101 43 34 0 48 -6 76 -34 23 -23 34 -43 34 -64 l0
-29 -52 14 c-95 25 -190 -2 -234 -66 -47 -69 -25 -179 43 -215 74 -38 160 -27
212 25 l31 31 0 -31 c0 -30 2 -31 41 -31 l41 0 -4 173 c-3 152 -5 176 -23 207
-45 76 -153 116 -236 87z m144 -248 c30 -8 37 -15 37 -35 0 -97 -138 -167
-205 -104 -28 26 -31 55 -13 96 22 48 99 66 181 43z"/>
<path d="M3457 3668 c-21 -6 -53 -25 -72 -43 -31 -29 -35 -38 -35 -85 0 -47 4
-56 33 -84 24 -22 54 -36 108 -50 99 -24 119 -38 119 -80 0 -48 -30 -71 -92
-71 -46 0 -53 3 -87 41 -35 40 -37 40 -68 27 l-32 -13 20 -35 c42 -71 132
-107 215 -86 87 22 124 64 124 141 0 75 -42 110 -172 145 -76 20 -103 42 -94
78 7 30 44 47 102 47 37 0 50 -5 72 -29 27 -29 27 -29 59 -13 l32 17 -25 33
c-14 18 -38 39 -53 46 -38 20 -110 26 -154 14z"/>
<path d="M3925 3675 c-5 -2 -22 -6 -38 -9 -37 -9 -103 -70 -130 -120 -32 -63
-30 -175 5 -243 34 -63 65 -89 136 -109 106 -31 206 12 256 110 74 146 0 334
-143 365 -52 11 -68 12 -86 6z m121 -106 c33 -30 63 -94 64 -135 1 -102 -91
-196 -173 -178 -135 29 -173 240 -58 320 48 33 127 30 167 -7z"/>
<path d="M4425 3669 c-17 -4 -44 -22 -60 -39 -36 -38 -45 -38 -45 0 0 28 -3
30 -35 30 l-35 0 0 -230 0 -230 40 0 40 0 0 150 c0 164 6 190 56 229 29 23 92
28 125 11 44 -24 54 -65 54 -232 l0 -158 38 0 37 0 0 153 c-1 181 -10 230 -53
275 -44 46 -99 60 -162 41z"/>
<path d="M683 2141 l-81 -6 174 -320 c96 -176 231 -424 300 -551 l125 -231
-67 -122 c-37 -67 -70 -119 -75 -114 -8 8 -156 270 -244 431 -27 50 -53 92
-57 92 -4 0 0 -12 7 -27 13 -25 12 -31 -9 -68 -13 -22 -47 -85 -76 -140 -29
-55 -56 -104 -60 -110 -5 -5 -21 -35 -37 -65 -61 -115 -246 -446 -265 -473
l-19 -27 145 0 144 0 138 253 c75 138 150 273 167 300 l30 47 32 -57 c18 -32
49 -89 70 -127 l37 -68 19 28 c10 16 19 35 19 42 0 6 5 12 10 12 6 0 10 5 10
11 0 7 10 28 22 48 12 19 23 40 24 46 1 6 15 31 32 55 16 25 53 90 82 145 45
86 51 105 47 142 -4 38 -105 234 -285 555 -24 42 -78 141 -132 238 l-35 65
-55 1 c-30 0 -92 -2 -137 -5z"/>
<path d="M2194 2081 c-51 -9 -123 -51 -169 -98 -122 -126 -127 -357 -8 -492
68 -78 142 -111 249 -111 70 0 89 4 143 31 42 21 75 47 101 81 45 57 59 96 67
191 l6 67 -157 0 -156 0 0 -40 0 -40 115 0 115 0 0 -27 c-1 -65 -88 -160 -168
-183 -112 -31 -225 19 -289 127 -32 56 -43 167 -22 240 17 62 107 156 165 172
88 25 168 10 230 -42 l31 -26 22 22 c26 29 26 34 -1 58 -69 59 -179 87 -274
70z"/>
<path d="M3511 2080 c-55 -12 -131 -61 -176 -113 -80 -93 -103 -250 -56 -374
29 -77 100 -154 173 -188 43 -20 69 -25 138 -25 98 0 145 17 209 76 68 61 91
109 98 208 l6 86 -157 0 -157 0 3 -37 3 -38 118 -3 118 -3 -6 -32 c-11 -49
-30 -80 -73 -119 -103 -93 -242 -88 -344 14 -64 64 -88 157 -69 264 33 181
246 275 385 169 l44 -33 27 27 26 28 -33 28 c-69 58 -181 85 -277 65z"/>
<path d="M2670 1730 l0 -342 143 4 c168 5 221 22 288 95 58 63 82 122 87 220
6 115 -21 201 -83 266 -73 77 -114 90 -287 95 l-148 4 0 -342z m266 257 c66
-17 119 -60 149 -121 21 -42 25 -64 25 -135 0 -105 -19 -151 -81 -204 -54 -47
-98 -59 -202 -55 l-82 3 -3 240 c-1 132 0 250 3 263 5 20 11 22 73 22 37 0 90
-6 118 -13z"/>
<path d="M4210 1730 l0 -342 143 4 c138 3 145 4 209 36 121 60 168 146 168
311 0 89 -3 103 -30 159 -33 66 -76 109 -143 144 -37 20 -60 23 -194 26 l-153
4 0 -342z m259 259 c68 -14 125 -58 158 -121 24 -46 28 -64 27 -138 0 -72 -4
-93 -26 -136 -28 -54 -82 -98 -139 -114 -19 -6 -71 -10 -116 -10 l-83 0 0 265
0 265 65 0 c35 0 87 -5 114 -11z"/>
<path d="M5720 1730 l0 -340 35 0 34 0 3 148 3 147 133 3 132 3 0 34 0 35
-135 0 -136 0 3 118 3 117 148 3 147 3 0 34 0 35 -185 0 -185 0 0 -340z"/>
<path d="M7068 1928 l-3 -73 -37 -3 c-36 -3 -38 -5 -38 -38 0 -33 1 -34 40
-34 l40 0 0 -145 c0 -161 10 -201 55 -231 27 -17 126 -27 139 -13 3 3 1 20 -5
38 -9 25 -16 32 -31 27 -33 -8 -65 10 -77 45 -6 17 -11 88 -11 155 l0 124 55
0 55 0 0 34 0 35 -52 3 -53 3 -3 73 -3 72 -34 0 -34 0 -3 -72z"/>
<path d="M4930 1855 c-46 -21 -87 -61 -113 -110 -16 -31 -21 -59 -21 -125 0
-76 3 -91 28 -134 41 -71 102 -106 184 -106 38 0 78 7 98 16 34 16 94 76 94
94 0 5 -14 17 -31 25 -29 15 -32 15 -45 -2 -7 -10 -14 -21 -14 -25 0 -4 -13
-14 -30 -23 -33 -17 -87 -20 -124 -5 -34 13 -86 86 -86 122 l0 28 176 0 177 0
-7 57 c-8 71 -45 135 -96 169 -50 33 -139 42 -190 19z m133 -70 c34 -17 60
-46 71 -82 7 -22 6 -22 -124 -25 -73 -2 -134 0 -137 5 -8 13 39 78 71 98 38
23 77 24 119 4z"/>
<path d="M6274 1859 c-40 -12 -98 -65 -123 -114 -29 -55 -30 -189 -2 -244 22
-42 80 -97 118 -112 47 -18 145 -11 185 14 30 18 88 80 88 94 0 2 -14 9 -32
16 -31 13 -34 12 -69 -25 -32 -34 -41 -38 -85 -38 -32 0 -59 7 -78 20 -35 23
-76 86 -76 118 0 22 0 22 175 22 l175 0 0 38 c0 65 -20 115 -64 158 -57 58
-132 76 -212 53z m126 -74 c30 -16 74 -78 68 -96 -4 -11 -246 -14 -257 -3 -3
3 3 20 14 39 35 67 111 93 175 60z"/>
<path d="M6695 1851 c-69 -32 -85 -54 -85 -117 0 -75 29 -102 141 -134 89 -26
119 -47 119 -83 0 -42 -35 -67 -92 -67 -47 0 -54 3 -90 41 -37 39 -41 40 -69
29 -34 -15 -34 -13 -12 -48 19 -28 52 -59 87 -79 35 -20 146 -16 184 7 68 41
91 124 52 187 -23 38 -54 55 -139 76 -35 9 -74 23 -87 32 -56 36 -8 105 73
105 36 0 50 -6 75 -31 28 -28 33 -29 59 -18 35 14 35 18 7 54 -47 60 -148 81
-223 46z"/>
<path d="M5230 1840 c0 -5 7 -24 15 -42 8 -18 35 -87 60 -153 25 -66 57 -151
72 -188 l27 -68 39 3 40 3 34 90 c43 114 72 190 111 288 l30 77 -39 0 c-48 0
-41 13 -144 -283 -15 -43 -31 -75 -36 -70 -4 4 -32 78 -62 163 -30 85 -58 163
-62 173 -5 12 -18 17 -46 17 -21 0 -39 -4 -39 -10z"/>
<path d="M2057 1165 c-98 -34 -142 -135 -102 -231 24 -57 73 -90 210 -139 75
-28 105 -62 105 -122 0 -77 -47 -123 -128 -123 -58 0 -134 60 -154 122 -3 8
-14 7 -36 -3 -27 -11 -32 -18 -27 -37 17 -71 97 -139 183 -157 39 -8 123 10
168 37 64 38 94 160 60 242 -19 46 -94 100 -174 127 -118 38 -164 91 -137 157
26 60 125 82 191 41 19 -11 34 -24 34 -27 0 -4 4 -13 9 -20 7 -12 14 -11 40 2
36 19 37 22 13 58 -50 76 -159 108 -255 73z"/>
<path d="M5022 1133 c-30 -15 -102 -95 -102 -113 0 -4 14 -13 30 -20 29 -12
32 -11 69 29 35 38 42 41 90 41 45 0 57 -4 82 -29 28 -28 33 -47 29 -101 -2
-39 -60 -115 -184 -245 -109 -114 -115 -122 -116 -162 l0 -43 195 0 195 0 0
35 0 35 -140 0 c-77 0 -140 3 -140 8 0 4 52 63 115 131 121 131 155 189 155
270 0 73 -49 146 -113 170 -42 16 -127 13 -165 -6z"/>
<path d="M5524 1132 c-82 -39 -130 -121 -154 -262 -13 -79 5 -183 46 -268 65
-133 224 -169 333 -75 50 42 76 90 96 175 20 85 19 150 -4 237 -36 136 -105
203 -215 208 -44 3 -72 -2 -102 -15z m183 -98 c56 -68 67 -102 68 -214 0 -127
-18 -182 -76 -234 -32 -29 -47 -36 -82 -36 -56 0 -99 28 -133 85 -23 40 -28
61 -32 145 -6 119 8 184 50 235 41 49 77 64 135 55 34 -6 53 -15 70 -36z"/>
<path d="M6416 1087 c-22 -34 -64 -100 -94 -146 -69 -108 -93 -162 -99 -233
-11 -113 53 -204 160 -228 153 -35 280 101 246 262 -21 99 -123 169 -221 153
l-39 -7 58 84 c100 143 94 129 62 155 -15 13 -28 23 -30 23 -2 0 -22 -28 -43
-63z m82 -287 c42 -26 66 -81 59 -135 -8 -57 -71 -115 -125 -115 -45 0 -100
33 -119 70 -17 34 -16 105 1 139 30 57 123 78 184 41z"/>
<path d="M5990 1095 c-47 -24 -85 -49 -84 -55 6 -62 14 -66 74 -36 28 14 56
26 61 26 5 0 9 -113 9 -270 l0 -270 38 0 37 0 -3 325 -3 325 -22 -1 c-12 0
-60 -20 -107 -44z"/>
<path d="M2575 961 c-68 -17 -114 -61 -144 -139 -39 -99 -19 -224 46 -287 91
-88 263 -77 323 21 26 40 26 40 -12 53 -30 11 -34 9 -56 -19 -29 -38 -90 -56
-136 -40 -54 18 -106 84 -106 134 l0 26 175 0 175 0 0 23 c0 76 -58 180 -119
212 -34 17 -108 26 -146 16z m147 -110 c15 -17 28 -42 28 -56 l0 -25 -124 0
c-69 0 -127 3 -129 8 -9 13 29 73 59 93 23 16 41 19 83 16 46 -3 59 -9 83 -36z"/>
<path d="M3009 957 c-42 -14 -81 -44 -97 -74 -16 -29 -16 -29 19 -44 29 -11
33 -11 48 8 25 30 55 43 101 43 34 0 48 -6 76 -34 23 -23 34 -43 34 -64 l0
-29 -52 14 c-95 25 -190 -2 -234 -66 -47 -69 -25 -179 43 -215 74 -38 160 -27
212 25 l31 31 0 -31 c0 -30 2 -31 41 -31 l41 0 -4 173 c-3 152 -5 176 -23 207
-45 76 -153 116 -236 87z m144 -248 c30 -8 37 -15 37 -35 0 -97 -138 -167
-205 -104 -28 26 -31 55 -13 96 22 48 99 66 181 43z"/>
<path d="M3447 958 c-21 -6 -53 -25 -72 -43 -31 -29 -35 -38 -35 -85 0 -47 4
-56 33 -84 24 -22 54 -36 108 -50 99 -24 119 -38 119 -80 0 -48 -30 -71 -92
-71 -46 0 -53 3 -87 41 -35 40 -37 40 -68 27 l-32 -13 20 -35 c42 -71 132
-107 215 -86 87 22 124 64 124 141 0 75 -42 110 -172 145 -76 20 -103 42 -94
78 7 30 44 47 102 47 37 0 50 -5 72 -29 27 -29 27 -29 59 -13 l32 17 -25 33
c-14 18 -38 39 -53 46 -38 20 -110 26 -154 14z"/>
<path d="M3915 965 c-5 -2 -22 -6 -38 -9 -37 -9 -103 -70 -130 -120 -32 -63
-30 -175 5 -243 34 -63 65 -89 136 -109 106 -31 206 12 256 110 74 146 0 334
-143 365 -52 11 -68 12 -86 6z m121 -106 c33 -30 63 -94 64 -135 1 -102 -91
-196 -173 -178 -135 29 -173 240 -58 320 48 33 127 30 167 -7z"/>
<path d="M4415 959 c-17 -4 -44 -22 -60 -39 -36 -38 -45 -38 -45 0 0 28 -3 30
-35 30 l-35 0 0 -230 0 -230 40 0 40 0 0 150 c0 164 6 190 56 229 29 23 92 28
125 11 44 -24 54 -65 54 -232 l0 -158 38 0 37 0 0 153 c-1 181 -10 230 -53
275 -44 46 -99 60 -162 41z"/>
</g>
</svg>
